<svg fill="none" height="16" viewBox="0 0 16 16" width="16" xmlns="http://www.w3.org/2000/svg"><path d="m3.40625 12.5938c-.575-.575-.19375-1.7813-.4875-2.4876-.29375-.7062-1.41875-1.32495-1.41875-2.1062s1.1125-1.375 1.41875-2.10625-.0875-1.9125.4875-2.4875 1.78125-.19375 2.4875-.4875 1.325-1.41875 2.10625-1.41875 1.375 1.1125 2.1062 1.41875c.7313.30625 1.9126-.0875 2.4876.4875.5749.575.1937 1.78125.4875 2.4875.2937.70625 1.4187 1.325 1.4187 2.10625s-1.1125 1.375-1.4187 2.1062c-.3063.7313.0874 1.9126-.4875 2.4876-.575.5749-1.7813.1937-2.4876.4875-.7062.2937-1.32495 1.4187-2.1062 1.4187s-1.375-1.1125-2.10625-1.4187c-.73125-.3063-1.9125.0874-2.4875-.4875z" opacity=".3" stroke="#f36313" stroke-linecap="round" stroke-linejoin="round"/><path d="m8 12c.55228 0 1-.4477 1-1s-.44772-1-1-1-1 .4477-1 1 .44772 1 1 1z" fill="#f36313"/><path d="m8 8.5c.34612 0 .68446-.10264.97225-.29493.28778-.19229.51209-.4656.64454-.78537s.16711-.67164.09958-1.01111c-.06752-.33946-.23419-.65128-.47893-.89603-.24474-.24474-.55657-.41141-.89603-.47893-.33947-.06753-.69134-.03287-1.01111.09958s-.59308.35676-.78537.64454c-.19229.28779-.29493.62613-.29493.97225" stroke="#f36313" stroke-linecap="round" stroke-linejoin="round"/></svg>