<svg fill="none" height="16" viewBox="0 0 16 16" width="16" xmlns="http://www.w3.org/2000/svg" xmlns:xlink="http://www.w3.org/1999/xlink"><clipPath id="a"><path d="m0 0h16v16h-16z"/></clipPath><g clip-path="url(#a)"><path d="m12.5833 3h-9.16663c-.23012 0-.41667.22386-.41667.5v9c0 .2761.18655.5.41667.5h9.16663c.2302 0 .4167-.2239.4167-.5v-9c0-.27614-.1865-.5-.4167-.5z" stroke="#f36313" stroke-linecap="round" stroke-linejoin="round"/><path d="m5.25 6c.41421 0 .75-.33579.75-.75s-.33579-.75-.75-.75-.75.33579-.75.75.33579.75.75.75z" fill="#f36313"/><path d="m7.75 6c.41421 0 .75-.33579.75-.75s-.33579-.75-.75-.75-.75.33579-.75.75.33579.75.75.75z" fill="#f36313"/><g stroke="#f36313" stroke-linecap="round" stroke-linejoin="round"><path d="m1 4v-2c0-.55228.44772-1 1-1h2"/><path d="m1 12v2c0 .5523.44772 1 1 1h2"/><path d="m15 4v-2c0-.55228-.4477-1-1-1h-2"/><path d="m15 12v2c0 .5523-.4477 1-1 1h-2"/></g></g></svg>