<svg fill="none" height="16" viewBox="0 0 16 16" width="16" xmlns="http://www.w3.org/2000/svg"><path d="m12.5833 3h-9.16663c-.23012 0-.41667.22386-.41667.5v9c0 .2761.18655.5.41667.5h9.16663c.2302 0 .4167-.2239.4167-.5v-9c0-.27614-.1865-.5-.4167-.5z" stroke="#f36313" stroke-linecap="round" stroke-linejoin="round"/><g fill="#f36313"><path d="m5.25 6c.41421 0 .75-.33579.75-.75s-.33579-.75-.75-.75-.75.33579-.75.75.33579.75.75.75z"/><path d="m7.75 6c.41421 0 .75-.33579.75-.75s-.33579-.75-.75-.75-.75.33579-.75.75.33579.75.75.75z"/></g></svg>